<svg
  width="50"
  height="25"
  viewBox="0 0 50 25"
  fill="none"
  xmlns="http://www.w3.org/2000/svg"
>
  <path
    d="M 30.9 16.325 L 32.1 14.325 Q 33 15.075 34.125 15.55 A 5.837 5.837 0 0 0 35.468 15.928 A 8.03 8.03 0 0 0 36.75 16.025 A 6.995 6.995 0 0 0 37.887 15.939 Q 38.907 15.77 39.6 15.275 Q 40.612 14.552 40.649 13.342 A 3.029 3.029 0 0 0 40.65 13.25 A 2.985 2.985 0 0 0 40.566 12.527 A 2.454 2.454 0 0 0 40.35 11.963 A 2.024 2.024 0 0 0 40.05 11.549 Q 39.733 11.203 39.196 10.868 A 6.314 6.314 0 0 0 39.188 10.863 Q 38.409 10.377 36.966 9.82 A 29.647 29.647 0 0 0 36.65 9.7 Q 35.376 9.205 34.465 8.703 A 9.874 9.874 0 0 1 33.775 8.288 A 5.483 5.483 0 0 1 33.003 7.676 Q 32.574 7.263 32.31 6.797 A 3.326 3.326 0 0 1 32.238 6.663 A 4.167 4.167 0 0 1 31.857 5.495 A 5.732 5.732 0 0 1 31.775 4.5 Q 31.775 3.25 32.463 2.238 A 4.294 4.294 0 0 1 33.576 1.128 A 5.846 5.846 0 0 1 34.488 0.613 A 6.389 6.389 0 0 1 35.963 0.154 Q 36.621 0.029 37.373 0.006 A 11.307 11.307 0 0 1 37.725 0 Q 39.275 0 40.513 0.313 Q 41.75 0.625 42.925 1.2 L 42.05 3.225 Q 41.2 2.725 40.063 2.388 Q 38.925 2.05 37.675 2.05 A 6.797 6.797 0 0 0 36.668 2.12 Q 35.713 2.263 35.075 2.7 A 2.475 2.475 0 0 0 34.534 3.191 A 1.84 1.84 0 0 0 34.125 4.375 A 2.616 2.616 0 0 0 34.198 5.006 A 2.14 2.14 0 0 0 34.4 5.525 A 1.728 1.728 0 0 0 34.667 5.881 Q 34.948 6.176 35.423 6.462 A 5.879 5.879 0 0 0 35.488 6.5 A 8.251 8.251 0 0 0 36.042 6.793 Q 36.609 7.069 37.412 7.381 A 32.502 32.502 0 0 0 37.925 7.575 A 20.307 20.307 0 0 1 39.17 8.082 Q 39.778 8.356 40.278 8.639 A 8.876 8.876 0 0 1 41.013 9.1 A 6.511 6.511 0 0 1 41.773 9.719 Q 42.168 10.098 42.432 10.503 A 3.557 3.557 0 0 1 42.625 10.838 A 4.395 4.395 0 0 1 43.06 12.303 A 5.539 5.539 0 0 1 43.1 12.975 A 5.428 5.428 0 0 1 42.933 14.35 A 4.276 4.276 0 0 1 42.288 15.75 A 4.904 4.904 0 0 1 40.555 17.256 A 6.089 6.089 0 0 1 40.038 17.5 A 7.63 7.63 0 0 1 38.185 18.001 A 10.007 10.007 0 0 1 36.75 18.1 A 11.842 11.842 0 0 1 34.806 17.947 A 9.512 9.512 0 0 1 33.425 17.613 Q 31.925 17.125 30.9 16.325 Z M 22.4 17.8 L 20.025 17.8 L 20.025 0.3 L 30.4 0.3 L 30.4 2.35 L 22.4 2.35 L 22.4 7.7 L 29.075 7.7 L 29.075 9.65 L 22.4 9.65 L 22.4 17.8 Z M 6.352 17.911 A 9.128 9.128 0 0 0 8.25 18.1 A 9.587 9.587 0 0 0 9.541 18.016 A 7.518 7.518 0 0 0 11.725 17.388 Q 13.25 16.675 14.325 15.438 Q 15.4 14.2 15.963 12.55 A 10.131 10.131 0 0 0 16.182 11.817 A 11.111 11.111 0 0 0 16.525 9.025 A 12.054 12.054 0 0 0 16.505 8.331 A 10.36 10.36 0 0 0 15.963 5.525 Q 15.4 3.9 14.325 2.65 Q 13.25 1.4 11.713 0.7 A 7.481 7.481 0 0 0 10.24 0.209 A 9.105 9.105 0 0 0 8.25 0 A 9.837 9.837 0 0 0 6.693 0.119 A 7.415 7.415 0 0 0 3.825 1.188 Q 1.975 2.375 0.988 4.413 A 9.497 9.497 0 0 0 0.279 6.441 A 11.545 11.545 0 0 0 0 9.025 A 12.228 12.228 0 0 0 0.009 9.49 A 10.692 10.692 0 0 0 0.563 12.55 A 9.844 9.844 0 0 0 0.673 12.856 A 8.588 8.588 0 0 0 2.188 15.438 Q 3.25 16.675 4.775 17.388 A 7.285 7.285 0 0 0 6.352 17.911 Z M 8.25 16.05 A 6.629 6.629 0 0 0 9.737 15.892 A 4.829 4.829 0 0 0 11.475 15.125 A 5.618 5.618 0 0 0 13.306 12.907 A 6.813 6.813 0 0 0 13.438 12.613 A 8.527 8.527 0 0 0 14.018 10.38 A 10.876 10.876 0 0 0 14.1 9.025 Q 14.1 7.675 13.7 6.425 A 7.434 7.434 0 0 0 12.665 4.344 A 7.031 7.031 0 0 0 12.55 4.188 Q 11.8 3.2 10.713 2.625 A 4.98 4.98 0 0 0 8.858 2.08 A 6.144 6.144 0 0 0 8.25 2.05 A 6.022 6.022 0 0 0 6.627 2.26 A 4.886 4.886 0 0 0 5.113 2.975 Q 3.8 3.9 3.113 5.475 A 8.198 8.198 0 0 0 2.499 7.772 A 10.314 10.314 0 0 0 2.425 9.025 Q 2.425 10.375 2.813 11.638 A 7.345 7.345 0 0 0 3.858 13.774 A 6.981 6.981 0 0 0 3.95 13.9 Q 4.7 14.9 5.788 15.475 A 4.98 4.98 0 0 0 7.642 16.021 A 6.144 6.144 0 0 0 8.25 16.05 Z"
    fill="#3BE8B0"
  />
</svg>